<?xml version="1.0" encoding="UTF-8"?>
<svg viewBox="0 0 120 120" xmlns="http://www.w3.org/2000/svg" xmlns:xlink="http://www.w3.org/1999/xlink">
 <defs>
  <linearGradient id="a">
   <stop stop-color="#d3b900" offset="0"/>
   <stop stop-color="#fdffb8" offset="1"/>
  </linearGradient>
  <linearGradient id="d" x1="43.924" x2="6.1457" y1="116" y2="80.057" gradientTransform="scale(1.1179 .89451)" gradientUnits="userSpaceOnUse" xlink:href="#a"/>
  <linearGradient id="c" x1="74.639" x2="65.235" y1="80.467" y2="46.014" gradientUnits="userSpaceOnUse" xlink:href="#a"/>
  <linearGradient id="b" x1="112.68" x2="98.988" y1="58.78" y2="14.364" gradientTransform="scale(.88284,1.1327)" gradientUnits="userSpaceOnUse" xlink:href="#a"/>
 </defs>
 <path d="m41.8 62.186c-8.373 0.034-16.416 3.1726-23.685 7.1035-6.4771 3.6404-12.657 9.0626-14.652 16.484-1.7047 6.554 0.83482 13.781 5.6087 18.419 5.0115 4.684 12.396 5.6048 18.943 4.6148 7.6178-1.2058 14.891-4.2618 21.4-8.3511 5.8472-3.7816 11.131-9.3603 12.329-16.457 0.92194-6.0362-1.1726-11.646-5.507-15.89-2.2142 2.9645-4.1241 5.5476-5.4943 9.0016-0.19547 1.6993 0.69876 3.2807 0.09142 5.1654-0.8637 4.4227-4.7038 7.3953-8.3126 9.6578-5.4059 3.0967-11.319 5.6764-17.58 6.2742-3.5742 0.32753-7.8466-0.47995-9.7879-3.8427-1.8111-2.7765-1.4366-6.5283 0.5612-9.1032 3.6685-4.9312 9.4596-7.621 15.025-9.8375 3.3882-1.2676 6.4383-2.1478 10.081-2.1804 0.85309-3.7846 2.705-7.4526 4.854-10.665-1.4044-0.24093-2.4477-0.38369-3.8732-0.39315z" fill="url(#d)" stroke="#000" stroke-width="1.25"/>
 <path d="m77.31 42.112c-5.7787 0.19987-11.417 2.173-16.154 5.4705-6.0668 4.208-11.366 9.5753-15.428 15.745-0.82731 1.599-2.1616 3.5776-2.909 5.4686-1.6964 4.0493-2.4327 8.5273-2.1434 12.907 0.28177 3.4092 1.3625 6.4023 4.4514 8.0227 2.6052-2.1238 5.4147-4.7905 5.1693-8.3417-1.3752-1.7267-0.43715-4.0072 0.57016-5.7728 3.6965-7.3664 9.3345-13.571 15.638-18.802 2.1616-1.7186 4.5898-3.3813 7.2264-4.4198 1.7353-0.64878 3.9563-0.5543 5.1886 1.001 1.9342 1.5104 0.57077 3.7653 1.0201 5.3771 1.8609 2.771 5.3868 3.0942 8.5821 1.7954 1.2145-3.7713 1.8175-6.3804 0.86406-10.29-1.3833-4.5602-5.8315-8.1448-10.661-8.1609-0.47122-0.01935-0.94315-0.01706-1.4144 0zm-5.3246 26.176c-3.3776 3.8061-5.8583 6.6651-9.9827 9.6517 1.032 4.0746 0.1099 8.2278-1.8448 11.925 8.5273-2.7988 14.959-8.5857 20.77-15.232 1.1382-1.0546 1.6292-1.8824-0.21629-1.9721-3.0899-0.91581-6.5062-2.008-8.7261-4.3722z" fill="url(#c)" stroke="#000" stroke-width="1.25"/>
 <path d="m93.183 13.422c-6.9565-0.14692-13.088 4.3323-17.093 9.7002-4.4801 6.053-8.1356 14.07-9.8519 21.37 2.782-1.8657 9.888-3.1418 12.844-2.766 1.9901-5.4229 4.4542-11.84 9.1427-15.47 2.7689-2.2882 7.002-2.3903 9.8216-0.1503 3.4123 2.6572 3.6009 7.5018 3.0625 11.44-0.93538 5.8506-3.0846 11.503-6.0642 16.614-2.1673 3.4896-5.2842 7.2311-9.6737 7.592-3.6536 0.25593-7.1854-2.3822-7.9833-5.9578-0.77057-1.0421-0.03046-3.3065-1.0721-3.3532-1.5212-0.44804-5.5729 1.508-9.1185 4.3497 0.53166 5.957 2.814 10.353 8.1323 13.263 5.2977 3.0543 12.135 3.7716 17.667 0.87034 6.5233-3.2334 10.894-9.5297 13.924-15.949 3.5487-7.8588 6.2967-16.605 4.9422-25.31-0.80077-5.5282-3.977-10.806-8.9724-13.487-2.9595-1.6464-6.306-2.6992-9.7071-2.7556z" fill="url(#b)" stroke="#000" stroke-width="1.25"/>
</svg>
